<svg width="17" height="17" viewBox="0 0 17 17" fill="none" xmlns="http://www.w3.org/2000/svg">
<path d="M8.62813 16.9184C6.37174 16.9184 6.10574 16.9065 5.2252 16.868C4.53853 16.8454 3.86075 16.7058 3.22105 16.4552C2.67363 16.2422 2.17649 15.9176 1.7612 15.5022C1.34592 15.0868 1.02156 14.5895 0.808732 14.042C0.567781 13.4 0.43782 12.7216 0.424412 12.036C0.373047 11.1573 0.373047 10.8693 0.373047 8.63033C0.373047 6.36752 0.384971 6.10335 0.424412 5.2274C0.438113 4.5427 0.56807 3.86532 0.808732 3.22417C1.02132 2.67597 1.34589 2.17813 1.76173 1.76245C2.17757 1.34677 2.67553 1.02239 3.2238 0.810012C3.86462 0.568048 4.54218 0.437748 5.22704 0.424775C6.10299 0.375244 6.391 0.375244 8.62813 0.375244C10.9029 0.375244 11.1643 0.387168 12.0311 0.424775C12.7171 0.437616 13.3977 0.567863 14.0398 0.810012C14.5879 1.02263 15.0858 1.34711 15.5016 1.76276C15.9174 2.1784 16.242 2.67611 16.4549 3.22417C16.6998 3.8754 16.8309 4.56332 16.841 5.25767C16.8924 6.13637 16.8924 6.42347 16.8924 8.66151C16.8924 10.8996 16.8795 11.1931 16.841 12.0617C16.8273 12.748 16.697 13.4269 16.4558 14.0695C16.2424 14.6174 15.9175 15.1149 15.5015 15.5305C15.0856 15.9461 14.5878 16.2707 14.0398 16.4837C13.3977 16.724 12.7199 16.8542 12.0347 16.868C11.1588 16.9184 10.8717 16.9184 8.62813 16.9184ZM8.59695 1.82722C6.3534 1.82722 6.12042 1.83823 5.24446 1.87767C4.72132 1.88451 4.20322 1.98099 3.71269 2.16293C3.3549 2.30007 3.02983 2.51066 2.75841 2.78113C2.487 3.05159 2.27527 3.37593 2.13688 3.73323C1.95344 4.22853 1.85713 4.75227 1.85162 5.2806C1.80301 6.16939 1.80301 6.40237 1.80301 8.63033C1.80301 10.8317 1.81127 11.0986 1.85162 11.9819C1.85988 12.5047 1.95619 13.0229 2.13688 13.5137C2.41756 14.2355 2.98991 14.806 3.7136 15.0831C4.20351 15.2661 4.7215 15.3626 5.24446 15.3683C6.13234 15.4197 6.36624 15.4197 8.59695 15.4197C10.8469 15.4197 11.0799 15.4087 11.9485 15.3683C12.4717 15.362 12.9899 15.2655 13.4803 15.0831C13.8362 14.9449 14.1594 14.7341 14.4294 14.4643C14.6994 14.1944 14.9104 13.8713 15.0488 13.5155C15.2322 13.0202 15.3285 12.4955 15.334 11.9672H15.3441C15.3835 11.0903 15.3835 10.8564 15.3835 8.61565C15.3835 6.37486 15.3735 6.13913 15.334 5.26317C15.3257 4.74077 15.2293 4.22352 15.0488 3.73323C14.9107 3.37693 14.6999 3.05329 14.4299 2.78293C14.1598 2.51257 13.8364 2.30142 13.4803 2.16293C12.99 1.98011 12.4717 1.8836 11.9485 1.87767C11.0615 1.82722 10.8295 1.82722 8.59695 1.82722ZM8.62813 12.867C7.78939 12.8676 6.96932 12.6194 6.27166 12.1538C5.57399 11.6882 5.03007 11.0262 4.70867 10.2515C4.38728 9.47677 4.30286 8.62414 4.46609 7.80143C4.62932 6.97873 5.03287 6.22291 5.62569 5.62957C6.21852 5.03623 6.97399 4.63203 7.79655 4.46809C8.61912 4.30415 9.47182 4.38783 10.2468 4.70855C11.0218 5.02927 11.6843 5.57262 12.1505 6.26989C12.6166 6.96715 12.8656 7.787 12.8657 8.62574C12.8643 9.74952 12.4175 10.8269 11.6232 11.6219C10.8289 12.4169 9.7519 12.8646 8.62813 12.867ZM8.62813 5.87221C8.0839 5.87221 7.55189 6.0336 7.09937 6.33596C6.64686 6.63832 6.29417 7.06807 6.0859 7.57088C5.87763 8.07369 5.82313 8.62696 5.92931 9.16074C6.03548 9.69451 6.29756 10.1848 6.68239 10.5696C7.06722 10.9545 7.55753 11.2166 8.0913 11.3227C8.62508 11.4289 9.17835 11.3744 9.68116 11.1661C10.184 10.9579 10.6137 10.6052 10.9161 10.1527C11.2184 9.70015 11.3798 9.16814 11.3798 8.62391C11.3781 7.89463 11.0877 7.19571 10.572 6.68004C10.0563 6.16436 9.3574 5.87391 8.62813 5.87221ZM13.0308 5.21823C12.901 5.21774 12.7725 5.19169 12.6527 5.14156C12.533 5.09142 12.4242 5.01818 12.3327 4.92603C12.148 4.73991 12.0448 4.48802 12.0457 4.22578C12.0467 3.96354 12.1518 3.71243 12.3379 3.52769C12.5241 3.34294 12.7759 3.2397 13.0382 3.24068C13.3004 3.24165 13.5515 3.34676 13.7363 3.53288C13.921 3.71899 14.0243 3.97088 14.0233 4.23312C14.0223 4.49536 13.9172 4.74647 13.7311 4.93122C13.545 5.11596 13.2931 5.2192 13.0308 5.21823Z" fill="url(#paint0_linear_696_7322)"/>
<defs>
<linearGradient id="paint0_linear_696_7322" x1="0.373047" y1="8.64684" x2="16.8924" y2="8.64684" gradientUnits="userSpaceOnUse">
<stop stop-color="#393185"/>
<stop offset="1" stop-color="#E4097F"/>
</linearGradient>
</defs>
</svg>
